<?xml version="1.0" encoding="utf-8"?>
<!-- Generator: Adobe Illustrator 16.0.0, SVG Export Plug-In . SVG Version: 6.00 Build 0)  -->
<!DOCTYPE svg PUBLIC "-//W3C//DTD SVG 1.1//EN" "http://www.w3.org/Graphics/SVG/1.1/DTD/svg11.dtd">
<svg version="1.1" id="圖層_1" xmlns="http://www.w3.org/2000/svg" xmlns:xlink="http://www.w3.org/1999/xlink" x="0px" y="0px"
	 width="26.829px" height="30.814px" viewBox="0 0 26.829 30.814" enable-background="new 0 0 26.829 30.814" xml:space="preserve">
<g>
	<path fill="#FFFFFF" d="M20.989,19.004c-0.311-0.307-0.996-0.469-2.043-0.482c-0.709-0.006-1.563,0.057-2.457,0.182
		c-0.4-0.23-0.814-0.484-1.139-0.787c-0.875-0.816-1.602-1.947-2.058-3.191c0.03-0.119,0.056-0.221,0.078-0.324
		c0,0,0.492-2.795,0.363-3.738c-0.02-0.129-0.03-0.168-0.065-0.27l-0.041-0.107c-0.134-0.311-0.397-0.635-0.808-0.619l-0.242-0.008
		h-0.006c-0.459,0-0.833,0.234-0.932,0.586c-0.298,1.098,0.011,2.746,0.568,4.875l-0.144,0.348c-0.398,0.973-0.9,1.955-1.342,2.82
		l-0.056,0.111c-0.467,0.908-0.888,1.682-1.271,2.334l-0.394,0.211c-0.028,0.014-0.705,0.371-0.862,0.467
		c-1.347,0.805-2.239,1.717-2.387,2.439c-0.047,0.23-0.011,0.527,0.229,0.662l0.382,0.193c0.166,0.082,0.34,0.125,0.518,0.125
		c0.96,0,2.072-1.193,3.603-3.867c1.77-0.578,3.786-1.055,5.55-1.32c1.348,0.758,3.002,1.283,4.047,1.283
		c0.188,0,0.346-0.018,0.477-0.051c0.199-0.055,0.369-0.168,0.471-0.324c0.203-0.305,0.244-0.723,0.188-1.154
		C21.2,19.268,21.099,19.111,20.989,19.004L20.989,19.004z M6.674,24.102c0.176-0.479,0.867-1.422,1.889-2.26
		c0.065-0.053,0.225-0.201,0.369-0.34C7.862,23.209,7.147,23.889,6.674,24.102L6.674,24.102z M12.733,10.155
		c0.307,0,0.484,0.775,0.497,1.502c0.015,0.729-0.154,1.238-0.367,1.619c-0.174-0.561-0.259-1.445-0.259-2.02
		C12.604,11.256,12.591,10.155,12.733,10.155L12.733,10.155z M10.927,20.094c0.213-0.385,0.436-0.791,0.664-1.217
		c0.557-1.055,0.908-1.875,1.169-2.553c0.52,0.947,1.168,1.75,1.93,2.396c0.094,0.078,0.197,0.16,0.301,0.242
		C13.444,19.268,12.103,19.641,10.927,20.094L10.927,20.094z M20.69,20.006c-0.094,0.061-0.365,0.092-0.537,0.092
		c-0.561,0-1.256-0.254-2.229-0.672c0.373-0.027,0.715-0.043,1.023-0.043c0.563,0,0.729-0.002,1.281,0.139
		C20.778,19.662,20.786,19.947,20.69,20.006L20.69,20.006z M25.208,6.069l-4.412-4.412c-1.666-1.875-2.23-1.648-3.592-1.648H2.383
		c-2.081-0.047-2.38,0.748-2.38,2.107v26.677c-0.061,1.992,0.662,2.021,2.019,2.021h22.727c1.359,0,2.199,0,2.049-2.021V10.02
		C26.798,8.663,27.187,7.928,25.208,6.069L25.208,6.069z M25.524,7.37c0.131,0.133,0.266,0.297,0.393,0.48h-6.945V0.905
		c0.186,0.125,0.348,0.26,0.482,0.393L25.524,7.37z M25.907,29.541c0,0.283-0.24,0.523-0.521,0.523H1.387
		c-0.284,0-0.523-0.24-0.523-0.523V1.368c0-0.283,0.239-0.521,0.523-0.521H17.62c0.158,0,0.334,0.02,0.521,0.055v7.76h7.711
		c0.035,0.188,0.055,0.365,0.055,0.521V29.541z M25.499,29.08"/>
</g>
</svg>
